<svg width="22" height="22" viewBox="0 0 22 22" fill="none" xmlns="http://www.w3.org/2000/svg">
<path d="M18.5075 12.8883L17.4717 11.165C17.2425 10.7892 17.0409 10.065 17.0409 9.62498V7.91082C17.0409 4.58332 14.3367 1.87915 11.0184 1.87915C7.69086 1.88832 4.98669 4.58332 4.98669 7.91082V9.61582C4.98669 10.0558 4.78502 10.78 4.56502 11.1558L3.52919 12.8792C3.13502 13.5483 3.04336 14.3091 3.29086 14.9691C3.53836 15.6383 4.09752 16.17 4.83086 16.4083C5.82086 16.7383 6.82002 16.9766 7.83752 17.1508C7.93836 17.1691 8.03919 17.1783 8.14002 17.1967C8.26836 17.215 8.40586 17.2333 8.54336 17.2516C8.78169 17.2883 9.02002 17.3158 9.26752 17.3342C9.84502 17.3892 10.4317 17.4167 11.0184 17.4167C11.5959 17.4167 12.1734 17.3892 12.7417 17.3342C12.9525 17.3158 13.1634 17.2975 13.365 17.27C13.53 17.2517 13.695 17.2333 13.86 17.2058C13.9609 17.1967 14.0617 17.1783 14.1625 17.16C15.1892 16.995 16.2067 16.7383 17.1967 16.4083C17.9025 16.17 18.4434 15.6383 18.7 14.96C18.9567 14.2725 18.8834 13.5208 18.5075 12.8883ZM11.6875 9.16665C11.6875 9.55165 11.3759 9.86332 10.9909 9.86332C10.6059 9.86332 10.2942 9.55165 10.2942 9.16665V6.32498C10.2942 5.93998 10.6059 5.62832 10.9909 5.62832C11.3759 5.62832 11.6875 5.93998 11.6875 6.32498V9.16665Z" fill="#18333E"/>
<path d="M13.5942 18.3425C13.2092 19.4058 12.1917 20.1666 11 20.1666C10.2759 20.1666 9.56087 19.8733 9.05671 19.3508C8.76337 19.0758 8.54337 18.7091 8.41504 18.3333C8.53421 18.3516 8.65337 18.3608 8.78171 18.3791C8.99254 18.4066 9.21254 18.4341 9.43254 18.4525C9.95504 18.4983 10.4867 18.5258 11.0184 18.5258C11.5409 18.5258 12.0634 18.4983 12.5767 18.4525C12.7692 18.4341 12.9617 18.425 13.145 18.3975C13.2917 18.3791 13.4384 18.3608 13.5942 18.3425Z" fill="#18333E"/>
</svg>
